<mxfile host="app.diagrams.net" modified="2021-04-10T18:36:03.381Z" agent="5.0 (Windows NT 10.0; Win64; x64) AppleWebKit/537.36 (KHTML, like Gecko) Chrome/89.0.4389.114 Safari/537.36" etag="KskRQhbIB3I958cGP-hc" version="14.5.10" type="github">
  <diagram id="Gfn2puJN_8Ijtjekafp_" name="Page-1">
    <mxGraphModel dx="1038" dy="548" grid="1" gridSize="10" guides="1" tooltips="1" connect="1" arrows="1" fold="1" page="1" pageScale="1" pageWidth="827" pageHeight="1169" math="0" shadow="0">
      <root>
        <mxCell id="0" />
        <mxCell id="1" parent="0" />
        <mxCell id="MHI3Yt-0vE--Oo0YkBRD-81" style="edgeStyle=orthogonalEdgeStyle;rounded=0;orthogonalLoop=1;jettySize=auto;html=1;entryX=0.006;entryY=0.552;entryDx=0;entryDy=0;entryPerimeter=0;" edge="1" parent="1" source="MHI3Yt-0vE--Oo0YkBRD-29" target="MHI3Yt-0vE--Oo0YkBRD-75">
          <mxGeometry relative="1" as="geometry" />
        </mxCell>
        <mxCell id="MHI3Yt-0vE--Oo0YkBRD-29" value="&lt;font style=&quot;line-height: 120% ; font-size: 19px&quot;&gt;Database1&lt;/font&gt;" style="shape=datastore;whiteSpace=wrap;html=1;" vertex="1" parent="1">
          <mxGeometry x="30" y="430" width="50" height="60" as="geometry" />
        </mxCell>
        <mxCell id="MHI3Yt-0vE--Oo0YkBRD-68" style="edgeStyle=orthogonalEdgeStyle;rounded=0;orthogonalLoop=1;jettySize=auto;html=1;" edge="1" parent="1" source="MHI3Yt-0vE--Oo0YkBRD-35" target="MHI3Yt-0vE--Oo0YkBRD-54">
          <mxGeometry relative="1" as="geometry" />
        </mxCell>
        <mxCell id="MHI3Yt-0vE--Oo0YkBRD-72" value="&lt;font style=&quot;font-size: 16px&quot;&gt;CHOOSE FILE&lt;/font&gt;" style="edgeLabel;html=1;align=center;verticalAlign=middle;resizable=0;points=[];" vertex="1" connectable="0" parent="MHI3Yt-0vE--Oo0YkBRD-68">
          <mxGeometry x="-0.2771" y="2" relative="1" as="geometry">
            <mxPoint as="offset" />
          </mxGeometry>
        </mxCell>
        <mxCell id="MHI3Yt-0vE--Oo0YkBRD-73" style="edgeStyle=orthogonalEdgeStyle;rounded=0;orthogonalLoop=1;jettySize=auto;html=1;" edge="1" parent="1" source="MHI3Yt-0vE--Oo0YkBRD-35">
          <mxGeometry relative="1" as="geometry">
            <mxPoint x="290" y="310" as="targetPoint" />
          </mxGeometry>
        </mxCell>
        <mxCell id="MHI3Yt-0vE--Oo0YkBRD-35" value="&lt;b&gt;&lt;font style=&quot;font-size: 16px&quot;&gt;Lua Function IMPORT_DB()&lt;/font&gt;&lt;/b&gt;" style="strokeWidth=2;html=1;shape=mxgraph.flowchart.terminator;whiteSpace=wrap;" vertex="1" parent="1">
          <mxGeometry x="60" y="130" width="180" height="100" as="geometry" />
        </mxCell>
        <mxCell id="MHI3Yt-0vE--Oo0YkBRD-48" value="&lt;font style=&quot;font-size: 13px&quot;&gt;&lt;br&gt;&lt;/font&gt;" style="text;html=1;align=center;verticalAlign=middle;resizable=0;points=[];autosize=1;strokeColor=none;rotation=10;" vertex="1" parent="1">
          <mxGeometry x="420" y="110" width="20" height="20" as="geometry" />
        </mxCell>
        <mxCell id="MHI3Yt-0vE--Oo0YkBRD-88" style="edgeStyle=orthogonalEdgeStyle;rounded=0;orthogonalLoop=1;jettySize=auto;html=1;entryX=0.5;entryY=0;entryDx=0;entryDy=0;" edge="1" parent="1" source="MHI3Yt-0vE--Oo0YkBRD-54" target="MHI3Yt-0vE--Oo0YkBRD-56">
          <mxGeometry relative="1" as="geometry">
            <Array as="points">
              <mxPoint x="764" y="180" />
            </Array>
          </mxGeometry>
        </mxCell>
        <mxCell id="MHI3Yt-0vE--Oo0YkBRD-54" value="&lt;font style=&quot;font-size: 18px&quot;&gt;File&amp;nbsp;&lt;/font&gt;" style="shape=image;html=1;verticalAlign=top;verticalLabelPosition=bottom;labelBackgroundColor=#ffffff;imageAspect=0;aspect=fixed;image=https://cdn1.iconfinder.com/data/icons/feather-2/24/file-text-128.png" vertex="1" parent="1">
          <mxGeometry x="590" y="116" width="128" height="128" as="geometry" />
        </mxCell>
        <mxCell id="MHI3Yt-0vE--Oo0YkBRD-86" style="edgeStyle=orthogonalEdgeStyle;rounded=0;orthogonalLoop=1;jettySize=auto;html=1;entryX=0.5;entryY=1;entryDx=0;entryDy=0;" edge="1" parent="1" target="MHI3Yt-0vE--Oo0YkBRD-85">
          <mxGeometry relative="1" as="geometry">
            <mxPoint x="710" y="530" as="sourcePoint" />
            <mxPoint x="362" y="767" as="targetPoint" />
          </mxGeometry>
        </mxCell>
        <mxCell id="MHI3Yt-0vE--Oo0YkBRD-87" value="&lt;font style=&quot;font-size: 16px&quot;&gt;Records will be directed inserted to avoid allocation &lt;br&gt;of extra storage by creating an array&lt;/font&gt;" style="edgeLabel;html=1;align=center;verticalAlign=middle;resizable=0;points=[];" vertex="1" connectable="0" parent="MHI3Yt-0vE--Oo0YkBRD-86">
          <mxGeometry x="0.1112" relative="1" as="geometry">
            <mxPoint as="offset" />
          </mxGeometry>
        </mxCell>
        <mxCell id="MHI3Yt-0vE--Oo0YkBRD-56" value="&lt;font style=&quot;font-size: 18px&quot;&gt;Each records will be fetched&lt;/font&gt;" style="shape=image;html=1;verticalAlign=top;verticalLabelPosition=bottom;labelBackgroundColor=#ffffff;imageAspect=0;aspect=fixed;image=https://cdn0.iconfinder.com/data/icons/fatcow/32x32/table_select_row.png" vertex="1" parent="1">
          <mxGeometry x="718" y="493" width="92" height="92" as="geometry" />
        </mxCell>
        <mxCell id="MHI3Yt-0vE--Oo0YkBRD-78" style="edgeStyle=orthogonalEdgeStyle;rounded=0;orthogonalLoop=1;jettySize=auto;html=1;" edge="1" parent="1" source="MHI3Yt-0vE--Oo0YkBRD-75" target="MHI3Yt-0vE--Oo0YkBRD-79">
          <mxGeometry relative="1" as="geometry">
            <mxPoint x="275" y="420" as="targetPoint" />
          </mxGeometry>
        </mxCell>
        <mxCell id="MHI3Yt-0vE--Oo0YkBRD-75" value="&lt;font style=&quot;font-size: 17px&quot;&gt;Options to choose a Database&amp;nbsp;&lt;/font&gt;" style="html=1;verticalLabelPosition=bottom;align=center;labelBackgroundColor=#ffffff;verticalAlign=top;strokeWidth=2;strokeColor=#0080F0;shadow=0;dashed=0;shape=mxgraph.ios7.icons.preferences;pointerEvents=1" vertex="1" parent="1">
          <mxGeometry x="210" y="280" width="130" height="46" as="geometry" />
        </mxCell>
        <mxCell id="MHI3Yt-0vE--Oo0YkBRD-83" style="edgeStyle=orthogonalEdgeStyle;rounded=0;orthogonalLoop=1;jettySize=auto;html=1;entryX=1.2;entryY=0.5;entryDx=0;entryDy=0;entryPerimeter=0;" edge="1" parent="1" source="MHI3Yt-0vE--Oo0YkBRD-76" target="MHI3Yt-0vE--Oo0YkBRD-29">
          <mxGeometry relative="1" as="geometry" />
        </mxCell>
        <mxCell id="MHI3Yt-0vE--Oo0YkBRD-76" value="&lt;font style=&quot;line-height: 120% ; font-size: 19px&quot;&gt;Database2&lt;/font&gt;" style="shape=datastore;whiteSpace=wrap;html=1;" vertex="1" parent="1">
          <mxGeometry x="20" y="525" width="60" height="60" as="geometry" />
        </mxCell>
        <mxCell id="MHI3Yt-0vE--Oo0YkBRD-82" style="edgeStyle=orthogonalEdgeStyle;rounded=0;orthogonalLoop=1;jettySize=auto;html=1;" edge="1" parent="1" source="MHI3Yt-0vE--Oo0YkBRD-77">
          <mxGeometry relative="1" as="geometry">
            <mxPoint x="140" y="460" as="targetPoint" />
          </mxGeometry>
        </mxCell>
        <mxCell id="MHI3Yt-0vE--Oo0YkBRD-77" value="&lt;font style=&quot;line-height: 120% ; font-size: 19px&quot;&gt;Database3&lt;/font&gt;" style="shape=datastore;whiteSpace=wrap;html=1;" vertex="1" parent="1">
          <mxGeometry x="100" y="480" width="50" height="60" as="geometry" />
        </mxCell>
        <mxCell id="MHI3Yt-0vE--Oo0YkBRD-79" value="Database name/ID" style="rhombus;whiteSpace=wrap;html=1;fillColor=#ffffc0;strokeColor=#ff0000;" vertex="1" parent="1">
          <mxGeometry x="330" y="398" width="140" height="64" as="geometry" />
        </mxCell>
        <mxCell id="MHI3Yt-0vE--Oo0YkBRD-84" style="edgeStyle=orthogonalEdgeStyle;rounded=0;orthogonalLoop=1;jettySize=auto;html=1;exitX=0;exitY=0.5;exitDx=0;exitDy=0;entryX=0.5;entryY=0;entryDx=0;entryDy=0;" edge="1" parent="1" source="MHI3Yt-0vE--Oo0YkBRD-79" target="MHI3Yt-0vE--Oo0YkBRD-85">
          <mxGeometry relative="1" as="geometry">
            <mxPoint x="370" y="620" as="targetPoint" />
            <Array as="points">
              <mxPoint x="190" y="430" />
              <mxPoint x="190" y="610" />
            </Array>
          </mxGeometry>
        </mxCell>
        <mxCell id="MHI3Yt-0vE--Oo0YkBRD-80" value="&lt;font style=&quot;font-size: 17px&quot;&gt;According to the database chosen,&amp;nbsp;the respective query &lt;br&gt;and syntax will be used to insert records.&lt;/font&gt;" style="text;html=1;align=center;verticalAlign=middle;resizable=0;points=[];autosize=1;strokeColor=none;" vertex="1" parent="1">
          <mxGeometry x="210" y="470" width="440" height="30" as="geometry" />
        </mxCell>
        <mxCell id="MHI3Yt-0vE--Oo0YkBRD-85" value="&lt;font style=&quot;line-height: 120% ; font-size: 19px&quot;&gt;Database&amp;nbsp;&lt;/font&gt;" style="shape=datastore;whiteSpace=wrap;html=1;" vertex="1" parent="1">
          <mxGeometry x="140" y="620" width="130" height="92" as="geometry" />
        </mxCell>
      </root>
    </mxGraphModel>
  </diagram>
</mxfile>
